<svg xmlns="http://www.w3.org/2000/svg" viewBox="0 0 512 512" role="img" aria-label="KPM Sunny Daily OS app icon">
  <defs>
    <linearGradient id="bg" x1="80" y1="32" x2="432" y2="480" gradientUnits="userSpaceOnUse">
      <stop offset="0" stop-color="#111827"/>
      <stop offset="0.52" stop-color="#07111f"/>
      <stop offset="1" stop-color="#02030a"/>
    </linearGradient>
    <radialGradient id="glow" cx="50%" cy="37%" r="48%">
      <stop offset="0" stop-color="#fcd34d" stop-opacity="0.55"/>
      <stop offset="1" stop-color="#f59e0b" stop-opacity="0"/>
    </radialGradient>
    <linearGradient id="sun" x1="162" y1="112" x2="350" y2="318" gradientUnits="userSpaceOnUse">
      <stop offset="0" stop-color="#fde68a"/>
      <stop offset="0.55" stop-color="#f59e0b"/>
      <stop offset="1" stop-color="#f97316"/>
    </linearGradient>
  </defs>
  <rect width="512" height="512" rx="112" fill="url(#bg)"/>
  <rect x="24" y="24" width="464" height="464" rx="94" fill="none" stroke="#fbbf24" stroke-opacity="0.22" stroke-width="4"/>
  <circle cx="256" cy="212" r="152" fill="url(#glow)"/>
  <circle cx="256" cy="204" r="86" fill="url(#sun)"/>
  <circle cx="256" cy="204" r="58" fill="#fef3c7" opacity="0.15"/>
  <path d="M256 78v42M256 288v42M130 204h42M340 204h42M167 115l30 30M315 263l30 30M345 115l-30 30M197 263l-30 30" stroke="#facc15" stroke-width="16" stroke-linecap="round" opacity="0.9"/>
  <text x="256" y="382" text-anchor="middle" font-family="Inter, Arial, sans-serif" font-size="82" font-weight="900" letter-spacing="8" fill="#fff7ed">KPM</text>
  <text x="256" y="424" text-anchor="middle" font-family="Inter, Arial, sans-serif" font-size="24" font-weight="800" letter-spacing="5" fill="#fbbf24">SUNNY OS</text>
</svg>
